<?xml version="1.0" encoding="UTF-8" standalone="no"?>
<!DOCTYPE svg PUBLIC "-//W3C//DTD SVG 1.1//EN" "http://www.w3.org/Graphics/SVG/1.1/DTD/svg11.dtd">
<svg width="100%" height="100%" viewBox="0 0 207 48" version="1.1" xmlns="http://www.w3.org/2000/svg" xmlns:xlink="http://www.w3.org/1999/xlink" xml:space="preserve" xmlns:serif="http://www.serif.com/" style="fill-rule:evenodd;clip-rule:evenodd;stroke-linejoin:round;stroke-miterlimit:2;">
    <path d="M207,12L207,36C207,42.623 201.623,48 195,48L12,48C5.377,48 0,42.623 0,36L0,12C0,5.377 5.377,0 12,0L195,0C201.623,0 207,5.377 207,12Z" style="fill:rgb(37,211,102);"/>
    <g transform="matrix(1.088,0,0,1.088,44.5163,33.5237)">
        <text x="0px" y="0px" style="font-family:'ArialMT', 'Arial', sans-serif;font-size:26px;fill:white;">Hızlı İletişim</text>
    </g>
    <g>
        <path d="M27.746,12.447C30.649,12.461 33.45,13.601 35.545,15.61C37.69,17.667 38.927,20.425 39.035,23.395C39.141,26.296 38.128,29.145 36.207,31.321C34.1,33.708 31.17,35.079 28.005,35.17C27.897,35.173 27.788,35.174 27.68,35.174C25.975,35.174 24.285,34.79 22.755,34.053L16.807,35.376C16.801,35.377 16.796,35.378 16.79,35.378C16.742,35.378 16.703,35.338 16.703,35.291L16.703,35.279L17.708,29.265C16.851,27.698 16.372,25.932 16.321,24.137C16.234,21.103 17.333,18.216 19.417,16.009C21.578,13.721 24.528,12.447 27.69,12.447L27.746,12.447ZM27.683,14.419C27.592,14.419 27.501,14.42 27.41,14.423C22.234,14.572 18.143,18.904 18.292,24.08C18.337,25.661 18.782,27.212 19.579,28.567L19.752,28.861L19.008,32.942L23.047,31.989L23.352,32.147C24.682,32.84 26.173,33.203 27.68,33.203C27.769,33.203 27.859,33.201 27.949,33.199C33.125,33.05 37.216,28.718 37.067,23.542C36.921,18.457 32.738,14.419 27.683,14.419ZM23.754,18.322C23.944,18.327 24.135,18.333 24.301,18.345C24.504,18.36 24.728,18.376 24.927,18.858C25.163,19.43 25.674,20.858 25.741,21.003C25.808,21.148 25.85,21.316 25.749,21.504C25.649,21.691 25.597,21.809 25.45,21.971C25.302,22.133 25.139,22.334 25.007,22.457C24.859,22.595 24.706,22.745 24.864,23.036C25.021,23.327 25.565,24.278 26.389,25.061C27.449,26.066 28.299,26.398 28.636,26.556C28.758,26.613 28.859,26.64 28.948,26.64C29.069,26.64 29.166,26.589 29.259,26.495C29.436,26.315 29.971,25.691 30.196,25.404C30.313,25.254 30.42,25.201 30.536,25.201C30.628,25.201 30.727,25.235 30.842,25.281C31.1,25.384 32.481,26.118 32.762,26.269C33.042,26.42 33.23,26.498 33.298,26.619C33.366,26.74 33.348,27.311 33.09,27.97C32.832,28.63 31.648,29.237 31.124,29.268C30.97,29.277 30.819,29.299 30.623,29.299C30.147,29.299 29.407,29.174 27.724,28.449C24.861,27.216 23.122,24.186 22.985,23.992C22.849,23.797 21.869,22.409 21.912,21.004C21.955,19.6 22.713,18.933 22.983,18.655C23.242,18.389 23.539,18.321 23.73,18.321L23.754,18.321L23.754,18.322Z" style="fill:white;"/>
    </g>
</svg>
