<?xml version="1.0" encoding="UTF-8" standalone="no"?>
<!DOCTYPE svg PUBLIC "-//W3C//DTD SVG 1.1//EN" "http://www.w3.org/Graphics/SVG/1.1/DTD/svg11.dtd">
<svg width="100%" height="100%" viewBox="0 0 160 36" version="1.1" xmlns="http://www.w3.org/2000/svg" xmlns:xlink="http://www.w3.org/1999/xlink" xml:space="preserve" xmlns:serif="http://www.serif.com/" style="fill-rule:evenodd;clip-rule:evenodd;stroke-linejoin:round;stroke-miterlimit:2;">
    <path id="path1" d="M160,8L160,28C160,32.415 156.415,36 152,36L8,36C3.585,36 0,32.415 0,28L0,8C0,3.585 3.585,0 8,0L152,0C156.415,0 160,3.585 160,8Z" style="fill:rgb(37,211,102);"/>
    <g transform="matrix(1,0,0,1,36.2353,25.1303)">
        <text x="0px" y="0px" style="font-family:'Cambria-Bold', 'Cambria', serif;font-weight:700;font-size:20px;fill:white;">Hızlı İletişim</text>
    </g>
    <g transform="matrix(1,0,0,1,1,0)">
        <g id="path2">
            <path d="M21.789,8.789C24.207,8.801 26.541,9.751 28.287,11.425C30.075,13.139 31.106,15.437 31.196,17.913C31.284,20.33 30.44,22.704 28.839,24.518C27.084,26.507 24.642,27.649 22.004,27.725C21.914,27.727 21.824,27.728 21.733,27.729C20.312,27.729 18.904,27.408 17.629,26.794L12.672,27.897C12.668,27.898 12.663,27.898 12.658,27.898C12.619,27.898 12.586,27.865 12.586,27.825L12.586,27.816L13.424,22.804C12.709,21.498 12.31,20.027 12.267,18.531C12.195,16.002 13.111,13.597 14.848,11.758C16.648,9.851 19.107,8.789 21.742,8.789L21.789,8.789ZM21.736,10.433C21.66,10.433 21.584,10.434 21.508,10.436C17.195,10.56 13.786,14.17 13.91,18.483C13.947,19.801 14.318,21.094 14.983,22.223L15.127,22.467L14.506,25.868L17.872,25.074L18.126,25.206C19.235,25.783 20.478,26.085 21.733,26.085C21.808,26.085 21.882,26.084 21.957,26.082C26.271,25.959 29.68,22.348 29.556,18.035C29.434,13.797 25.948,10.433 21.736,10.433ZM18.462,13.685C18.62,13.689 18.779,13.694 18.917,13.704C19.086,13.716 19.273,13.73 19.439,14.131C19.636,14.608 20.062,15.799 20.118,15.919C20.173,16.04 20.209,16.18 20.125,16.336C20.04,16.493 19.998,16.591 19.875,16.726C19.752,16.861 19.616,17.028 19.506,17.131C19.383,17.246 19.255,17.371 19.387,17.613C19.518,17.856 19.971,18.649 20.658,19.301C21.541,20.139 22.249,20.415 22.53,20.546C22.632,20.594 22.716,20.616 22.79,20.616C22.891,20.616 22.972,20.574 23.049,20.496C23.197,20.346 23.642,19.826 23.83,19.587C23.928,19.462 24.017,19.418 24.113,19.418C24.19,19.418 24.272,19.446 24.368,19.484C24.583,19.57 25.734,20.181 25.968,20.308C26.202,20.434 26.359,20.498 26.415,20.599C26.471,20.7 26.456,21.176 26.241,21.725C26.026,22.275 25.04,22.78 24.603,22.807C24.475,22.814 24.349,22.832 24.185,22.832C23.79,22.832 23.172,22.728 21.77,22.124C19.384,21.097 17.935,18.572 17.821,18.41C17.707,18.247 16.891,17.091 16.927,15.92C16.963,14.75 17.594,14.194 17.819,13.963C18.035,13.741 18.282,13.684 18.442,13.684L18.462,13.685Z" style="fill:white;"/>
        </g>
    </g>
</svg>
